<svg xmlns="http://www.w3.org/2000/svg" width="900" height="400" viewBox="0 0 900 400" role="img" aria-label="Daily contributions and commits over the last 30 days: 78 contributions, 60 commits">
<title>Daily contributions and commits over the last 30 days: 78 contributions, 60 commits</title>
<defs>
  <linearGradient id="gold" x1="0" y1="0" x2="1" y2="1"><stop offset="0" stop-color="#F6DE8D"/><stop offset=".45" stop-color="#D4AF37"/><stop offset="1" stop-color="#8A6A1C"/></linearGradient><pattern id="key" width="26" height="14" patternUnits="userSpaceOnUse"><path d="M0 12 H4 V1.5 H22 V12 H26 M22 8.5 H9 V5 H18" fill="none" stroke="#8A6A1C" stroke-width="1.4"/></pattern>
  <linearGradient id="areaC" x1="0" y1="0" x2="0" y2="1"><stop offset="0" stop-color="#D4AF37" stop-opacity=".42"/><stop offset="1" stop-color="#D4AF37" stop-opacity="0"/></linearGradient>
  <linearGradient id="areaK" x1="0" y1="0" x2="0" y2="1"><stop offset="0" stop-color="#22D3EE" stop-opacity=".28"/><stop offset="1" stop-color="#22D3EE" stop-opacity="0"/></linearGradient>
  <linearGradient id="strokeC" x1="0" x2="1"><stop offset="0" stop-color="#8A6A1C"/><stop offset=".6" stop-color="#D4AF37"/><stop offset="1" stop-color="#F6DE8D"/></linearGradient>
  <linearGradient id="strokeK" x1="0" x2="1"><stop offset="0" stop-color="#8B5CF6"/><stop offset="1" stop-color="#22D3EE"/></linearGradient>
  <style>
    .draw{stroke-dasharray:1;stroke-dashoffset:0;animation:draw 2.4s cubic-bezier(.3,.7,.2,1) both}
    .fade{animation:fade 2.2s ease-out both}
    .pt{animation:fade .6s ease-out both}
    @keyframes draw{from{stroke-dashoffset:1}to{stroke-dashoffset:0}}
    @keyframes fade{from{opacity:0}to{opacity:1}}
  </style>
</defs>

<rect x="1.5" y="1.5" width="897" height="397" rx="14" fill="#0c0f17" stroke="url(#gold)" stroke-width="1.6"/>
<text x="26" y="32" font-family="Georgia, 'Times New Roman', 'Palatino Linotype', serif" font-size="15" font-weight="700" letter-spacing="4" fill="url(#gold)">DAILY SPLINE</text>
<text x="874" y="32" text-anchor="end" font-family="'SFMono-Regular', Consolas, 'Liberation Mono', Menlo, monospace" font-size="11" letter-spacing="1.5" fill="#38BDF8">// last 30 days</text>
<rect x="26" y="37" width="848" height="14" fill="url(#key)" opacity=".55"/>
<g transform="translate(26 64)" font-family="'Segoe UI', Roboto, Helvetica, Arial, sans-serif" font-size="13">
  <rect y="2" width="22" height="4" rx="2" fill="url(#strokeC)"/><text x="32" y="9" fill="#E8E2D0">Contributions <tspan fill="#F6DE8D" font-family="'SFMono-Regular', Consolas, 'Liberation Mono', Menlo, monospace">78</tspan></text>
  <rect x="210" y="2" width="22" height="4" rx="2" fill="url(#strokeK)"/><text x="242" y="9" fill="#E8E2D0">Commits <tspan fill="#22D3EE" font-family="'SFMono-Regular', Consolas, 'Liberation Mono', Menlo, monospace">60</tspan></text>
</g>
<line x1="64" y1="92" x2="866" y2="92" stroke="#2a2412" stroke-dasharray="3 5"/>
    <text x="52" y="96" text-anchor="end" font-family="'SFMono-Regular', Consolas, 'Liberation Mono', Menlo, monospace" font-size="11" fill="#8F8A7A">16</text><line x1="64" y1="155" x2="866" y2="155" stroke="#2a2412" stroke-dasharray="3 5"/>
    <text x="52" y="159" text-anchor="end" font-family="'SFMono-Regular', Consolas, 'Liberation Mono', Menlo, monospace" font-size="11" fill="#8F8A7A">12</text><line x1="64" y1="218" x2="866" y2="218" stroke="#2a2412" stroke-dasharray="3 5"/>
    <text x="52" y="222" text-anchor="end" font-family="'SFMono-Regular', Consolas, 'Liberation Mono', Menlo, monospace" font-size="11" fill="#8F8A7A">8</text><line x1="64" y1="281" x2="866" y2="281" stroke="#2a2412" stroke-dasharray="3 5"/>
    <text x="52" y="285" text-anchor="end" font-family="'SFMono-Regular', Consolas, 'Liberation Mono', Menlo, monospace" font-size="11" fill="#8F8A7A">4</text><line x1="64" y1="344" x2="866" y2="344" stroke="#2a2412" stroke-dasharray="0"/>
    <text x="52" y="348" text-anchor="end" font-family="'SFMono-Regular', Consolas, 'Liberation Mono', Menlo, monospace" font-size="11" fill="#8F8A7A">0</text><text x="64.0" y="368" text-anchor="middle" font-family="'SFMono-Regular', Consolas, 'Liberation Mono', Menlo, monospace" font-size="11.5" fill="#8F8A7A">Sep 7</text><text x="202.3" y="368" text-anchor="middle" font-family="'SFMono-Regular', Consolas, 'Liberation Mono', Menlo, monospace" font-size="11.5" fill="#8F8A7A">Sep 12</text><text x="340.6" y="368" text-anchor="middle" font-family="'SFMono-Regular', Consolas, 'Liberation Mono', Menlo, monospace" font-size="11.5" fill="#8F8A7A">Sep 17</text><text x="478.8" y="368" text-anchor="middle" font-family="'SFMono-Regular', Consolas, 'Liberation Mono', Menlo, monospace" font-size="11.5" fill="#8F8A7A">Sep 22</text><text x="617.1" y="368" text-anchor="middle" font-family="'SFMono-Regular', Consolas, 'Liberation Mono', Menlo, monospace" font-size="11.5" fill="#8F8A7A">Sep 27</text><text x="755.4" y="368" text-anchor="middle" font-family="'SFMono-Regular', Consolas, 'Liberation Mono', Menlo, monospace" font-size="11.5" fill="#8F8A7A">Oct 2</text><text x="866.0" y="368" text-anchor="middle" font-family="'SFMono-Regular', Consolas, 'Liberation Mono', Menlo, monospace" font-size="11.5" fill="#8F8A7A">Oct 6</text>

<path d="M64.0 312.5 C73.2 323.0 82.4 344.0 91.7 344.0 C100.9 344.0 110.1 344.0 119.3 344.0 C128.5 344.0 137.7 344.0 147.0 344.0 C156.2 344.0 165.4 344.0 174.6 344.0 C183.8 344.0 193.1 344.0 202.3 344.0 C211.5 344.0 220.7 296.8 229.9 296.8 C239.1 296.8 248.4 296.8 257.6 296.8 C266.8 296.8 276.0 265.3 285.2 265.3 C294.5 265.3 303.7 344.0 312.9 344.0 C322.1 344.0 331.3 344.0 340.6 344.0 C349.8 344.0 359.0 344.0 368.2 344.0 C377.4 344.0 386.6 309.9 395.9 296.8 C405.1 283.6 414.3 288.9 423.5 265.3 C432.7 241.6 442.0 155.0 451.2 155.0 C460.4 155.0 469.6 281.0 478.8 281.0 C488.0 281.0 497.3 218.0 506.5 218.0 C515.7 218.0 524.9 291.5 534.1 312.5 C543.4 333.5 552.6 344.0 561.8 344.0 C571.0 344.0 580.2 249.5 589.4 249.5 C598.7 249.5 607.9 249.5 617.1 249.5 C626.3 249.5 635.5 312.5 644.8 328.3 C654.0 344.0 663.2 344.0 672.4 344.0 C681.6 344.0 690.9 328.3 700.1 328.3 C709.3 328.3 718.5 328.3 727.7 328.3 C736.9 328.3 746.2 344.0 755.4 344.0 C764.6 344.0 773.8 265.3 783.0 249.5 C792.3 233.8 801.5 233.8 810.7 233.8 C819.9 233.8 829.1 278.4 838.3 296.8 C847.6 315.1 856.8 328.3 866.0 344.0 L866.0 344 L64.0 344 Z" fill="url(#areaC)" class="fade"/>
<path d="M64.0 312.5 C73.2 323.0 82.4 344.0 91.7 344.0 C100.9 344.0 110.1 344.0 119.3 344.0 C128.5 344.0 137.7 344.0 147.0 344.0 C156.2 344.0 165.4 344.0 174.6 344.0 C183.8 344.0 193.1 344.0 202.3 344.0 C211.5 344.0 220.7 296.8 229.9 296.8 C239.1 296.8 248.4 296.8 257.6 296.8 C266.8 296.8 276.0 281.0 285.2 281.0 C294.5 281.0 303.7 344.0 312.9 344.0 C322.1 344.0 331.3 344.0 340.6 344.0 C349.8 344.0 359.0 344.0 368.2 344.0 C377.4 344.0 386.6 323.0 395.9 312.5 C405.1 302.0 414.3 307.3 423.5 281.0 C432.7 254.8 442.0 155.0 451.2 155.0 C460.4 155.0 469.6 281.0 478.8 281.0 C488.0 281.0 497.3 233.8 506.5 233.8 C515.7 233.8 524.9 312.5 534.1 328.3 C543.4 344.0 552.6 344.0 561.8 344.0 C571.0 344.0 580.2 281.0 589.4 265.3 C598.7 249.5 607.9 249.5 617.1 249.5 C626.3 249.5 635.5 312.5 644.8 328.3 C654.0 344.0 663.2 344.0 672.4 344.0 C681.6 344.0 690.9 328.3 700.1 328.3 C709.3 328.3 718.5 328.3 727.7 328.3 C736.9 328.3 746.2 344.0 755.4 344.0 C764.6 344.0 773.8 344.0 783.0 344.0 C792.3 344.0 801.5 281.0 810.7 281.0 C819.9 281.0 829.1 344.0 838.3 344.0 C847.6 344.0 856.8 344.0 866.0 344.0 L866.0 344 L64.0 344 Z" fill="url(#areaK)" class="fade"/>
<path d="M64.0 312.5 C73.2 323.0 82.4 344.0 91.7 344.0 C100.9 344.0 110.1 344.0 119.3 344.0 C128.5 344.0 137.7 344.0 147.0 344.0 C156.2 344.0 165.4 344.0 174.6 344.0 C183.8 344.0 193.1 344.0 202.3 344.0 C211.5 344.0 220.7 296.8 229.9 296.8 C239.1 296.8 248.4 296.8 257.6 296.8 C266.8 296.8 276.0 281.0 285.2 281.0 C294.5 281.0 303.7 344.0 312.9 344.0 C322.1 344.0 331.3 344.0 340.6 344.0 C349.8 344.0 359.0 344.0 368.2 344.0 C377.4 344.0 386.6 323.0 395.9 312.5 C405.1 302.0 414.3 307.3 423.5 281.0 C432.7 254.8 442.0 155.0 451.2 155.0 C460.4 155.0 469.6 281.0 478.8 281.0 C488.0 281.0 497.3 233.8 506.5 233.8 C515.7 233.8 524.9 312.5 534.1 328.3 C543.4 344.0 552.6 344.0 561.8 344.0 C571.0 344.0 580.2 281.0 589.4 265.3 C598.7 249.5 607.9 249.5 617.1 249.5 C626.3 249.5 635.5 312.5 644.8 328.3 C654.0 344.0 663.2 344.0 672.4 344.0 C681.6 344.0 690.9 328.3 700.1 328.3 C709.3 328.3 718.5 328.3 727.7 328.3 C736.9 328.3 746.2 344.0 755.4 344.0 C764.6 344.0 773.8 344.0 783.0 344.0 C792.3 344.0 801.5 281.0 810.7 281.0 C819.9 281.0 829.1 344.0 838.3 344.0 C847.6 344.0 856.8 344.0 866.0 344.0" pathLength="1" fill="none" stroke="url(#strokeK)" stroke-width="2.6" stroke-linecap="round" class="draw" style="animation-delay:.25s"/>
<path d="M64.0 312.5 C73.2 323.0 82.4 344.0 91.7 344.0 C100.9 344.0 110.1 344.0 119.3 344.0 C128.5 344.0 137.7 344.0 147.0 344.0 C156.2 344.0 165.4 344.0 174.6 344.0 C183.8 344.0 193.1 344.0 202.3 344.0 C211.5 344.0 220.7 296.8 229.9 296.8 C239.1 296.8 248.4 296.8 257.6 296.8 C266.8 296.8 276.0 265.3 285.2 265.3 C294.5 265.3 303.7 344.0 312.9 344.0 C322.1 344.0 331.3 344.0 340.6 344.0 C349.8 344.0 359.0 344.0 368.2 344.0 C377.4 344.0 386.6 309.9 395.9 296.8 C405.1 283.6 414.3 288.9 423.5 265.3 C432.7 241.6 442.0 155.0 451.2 155.0 C460.4 155.0 469.6 281.0 478.8 281.0 C488.0 281.0 497.3 218.0 506.5 218.0 C515.7 218.0 524.9 291.5 534.1 312.5 C543.4 333.5 552.6 344.0 561.8 344.0 C571.0 344.0 580.2 249.5 589.4 249.5 C598.7 249.5 607.9 249.5 617.1 249.5 C626.3 249.5 635.5 312.5 644.8 328.3 C654.0 344.0 663.2 344.0 672.4 344.0 C681.6 344.0 690.9 328.3 700.1 328.3 C709.3 328.3 718.5 328.3 727.7 328.3 C736.9 328.3 746.2 344.0 755.4 344.0 C764.6 344.0 773.8 265.3 783.0 249.5 C792.3 233.8 801.5 233.8 810.7 233.8 C819.9 233.8 829.1 278.4 838.3 296.8 C847.6 315.1 856.8 328.3 866.0 344.0" pathLength="1" fill="none" stroke="url(#strokeC)" stroke-width="3.2" stroke-linecap="round" class="draw"/>
<circle cx="64.0" cy="312.5" r="2.9" fill="#06070c" stroke="#F6DE8D" stroke-width="1.6" class="pt" style="animation-delay:0.90s"/><circle cx="91.7" cy="344.0" r="2.9" fill="#06070c" stroke="#F6DE8D" stroke-width="1.6" class="pt" style="animation-delay:0.94s"/><circle cx="119.3" cy="344.0" r="2.9" fill="#06070c" stroke="#F6DE8D" stroke-width="1.6" class="pt" style="animation-delay:0.98s"/><circle cx="147.0" cy="344.0" r="2.9" fill="#06070c" stroke="#F6DE8D" stroke-width="1.6" class="pt" style="animation-delay:1.02s"/><circle cx="174.6" cy="344.0" r="2.9" fill="#06070c" stroke="#F6DE8D" stroke-width="1.6" class="pt" style="animation-delay:1.06s"/><circle cx="202.3" cy="344.0" r="2.9" fill="#06070c" stroke="#F6DE8D" stroke-width="1.6" class="pt" style="animation-delay:1.10s"/><circle cx="229.9" cy="296.8" r="2.9" fill="#06070c" stroke="#F6DE8D" stroke-width="1.6" class="pt" style="animation-delay:1.14s"/><circle cx="257.6" cy="296.8" r="2.9" fill="#06070c" stroke="#F6DE8D" stroke-width="1.6" class="pt" style="animation-delay:1.18s"/><circle cx="285.2" cy="265.3" r="2.9" fill="#06070c" stroke="#F6DE8D" stroke-width="1.6" class="pt" style="animation-delay:1.22s"/><circle cx="312.9" cy="344.0" r="2.9" fill="#06070c" stroke="#F6DE8D" stroke-width="1.6" class="pt" style="animation-delay:1.26s"/><circle cx="340.6" cy="344.0" r="2.9" fill="#06070c" stroke="#F6DE8D" stroke-width="1.6" class="pt" style="animation-delay:1.30s"/><circle cx="368.2" cy="344.0" r="2.9" fill="#06070c" stroke="#F6DE8D" stroke-width="1.6" class="pt" style="animation-delay:1.34s"/><circle cx="395.9" cy="296.8" r="2.9" fill="#06070c" stroke="#F6DE8D" stroke-width="1.6" class="pt" style="animation-delay:1.38s"/><circle cx="423.5" cy="265.3" r="2.9" fill="#06070c" stroke="#F6DE8D" stroke-width="1.6" class="pt" style="animation-delay:1.42s"/><circle cx="451.2" cy="155.0" r="2.9" fill="#06070c" stroke="#F6DE8D" stroke-width="1.6" class="pt" style="animation-delay:1.46s"/><circle cx="478.8" cy="281.0" r="2.9" fill="#06070c" stroke="#F6DE8D" stroke-width="1.6" class="pt" style="animation-delay:1.50s"/><circle cx="506.5" cy="218.0" r="2.9" fill="#06070c" stroke="#F6DE8D" stroke-width="1.6" class="pt" style="animation-delay:1.54s"/><circle cx="534.1" cy="312.5" r="2.9" fill="#06070c" stroke="#F6DE8D" stroke-width="1.6" class="pt" style="animation-delay:1.58s"/><circle cx="561.8" cy="344.0" r="2.9" fill="#06070c" stroke="#F6DE8D" stroke-width="1.6" class="pt" style="animation-delay:1.62s"/><circle cx="589.4" cy="249.5" r="2.9" fill="#06070c" stroke="#F6DE8D" stroke-width="1.6" class="pt" style="animation-delay:1.66s"/><circle cx="617.1" cy="249.5" r="2.9" fill="#06070c" stroke="#F6DE8D" stroke-width="1.6" class="pt" style="animation-delay:1.70s"/><circle cx="644.8" cy="328.3" r="2.9" fill="#06070c" stroke="#F6DE8D" stroke-width="1.6" class="pt" style="animation-delay:1.74s"/><circle cx="672.4" cy="344.0" r="2.9" fill="#06070c" stroke="#F6DE8D" stroke-width="1.6" class="pt" style="animation-delay:1.78s"/><circle cx="700.1" cy="328.3" r="2.9" fill="#06070c" stroke="#F6DE8D" stroke-width="1.6" class="pt" style="animation-delay:1.82s"/><circle cx="727.7" cy="328.3" r="2.9" fill="#06070c" stroke="#F6DE8D" stroke-width="1.6" class="pt" style="animation-delay:1.86s"/><circle cx="755.4" cy="344.0" r="2.9" fill="#06070c" stroke="#F6DE8D" stroke-width="1.6" class="pt" style="animation-delay:1.90s"/><circle cx="783.0" cy="249.5" r="2.9" fill="#06070c" stroke="#F6DE8D" stroke-width="1.6" class="pt" style="animation-delay:1.94s"/><circle cx="810.7" cy="233.8" r="2.9" fill="#06070c" stroke="#F6DE8D" stroke-width="1.6" class="pt" style="animation-delay:1.98s"/><circle cx="838.3" cy="296.8" r="2.9" fill="#06070c" stroke="#F6DE8D" stroke-width="1.6" class="pt" style="animation-delay:2.02s"/><circle cx="866.0" cy="344.0" r="2.9" fill="#06070c" stroke="#F6DE8D" stroke-width="1.6" class="pt" style="animation-delay:2.06s"/><circle cx="64.0" cy="312.5" r="2.3" fill="#06070c" stroke="#22D3EE" stroke-width="1.4" class="pt" style="animation-delay:1.00s"/><circle cx="91.7" cy="344.0" r="2.3" fill="#06070c" stroke="#22D3EE" stroke-width="1.4" class="pt" style="animation-delay:1.04s"/><circle cx="119.3" cy="344.0" r="2.3" fill="#06070c" stroke="#22D3EE" stroke-width="1.4" class="pt" style="animation-delay:1.08s"/><circle cx="147.0" cy="344.0" r="2.3" fill="#06070c" stroke="#22D3EE" stroke-width="1.4" class="pt" style="animation-delay:1.12s"/><circle cx="174.6" cy="344.0" r="2.3" fill="#06070c" stroke="#22D3EE" stroke-width="1.4" class="pt" style="animation-delay:1.16s"/><circle cx="202.3" cy="344.0" r="2.3" fill="#06070c" stroke="#22D3EE" stroke-width="1.4" class="pt" style="animation-delay:1.20s"/><circle cx="229.9" cy="296.8" r="2.3" fill="#06070c" stroke="#22D3EE" stroke-width="1.4" class="pt" style="animation-delay:1.24s"/><circle cx="257.6" cy="296.8" r="2.3" fill="#06070c" stroke="#22D3EE" stroke-width="1.4" class="pt" style="animation-delay:1.28s"/><circle cx="285.2" cy="281.0" r="2.3" fill="#06070c" stroke="#22D3EE" stroke-width="1.4" class="pt" style="animation-delay:1.32s"/><circle cx="312.9" cy="344.0" r="2.3" fill="#06070c" stroke="#22D3EE" stroke-width="1.4" class="pt" style="animation-delay:1.36s"/><circle cx="340.6" cy="344.0" r="2.3" fill="#06070c" stroke="#22D3EE" stroke-width="1.4" class="pt" style="animation-delay:1.40s"/><circle cx="368.2" cy="344.0" r="2.3" fill="#06070c" stroke="#22D3EE" stroke-width="1.4" class="pt" style="animation-delay:1.44s"/><circle cx="395.9" cy="312.5" r="2.3" fill="#06070c" stroke="#22D3EE" stroke-width="1.4" class="pt" style="animation-delay:1.48s"/><circle cx="423.5" cy="281.0" r="2.3" fill="#06070c" stroke="#22D3EE" stroke-width="1.4" class="pt" style="animation-delay:1.52s"/><circle cx="451.2" cy="155.0" r="2.3" fill="#06070c" stroke="#22D3EE" stroke-width="1.4" class="pt" style="animation-delay:1.56s"/><circle cx="478.8" cy="281.0" r="2.3" fill="#06070c" stroke="#22D3EE" stroke-width="1.4" class="pt" style="animation-delay:1.60s"/><circle cx="506.5" cy="233.8" r="2.3" fill="#06070c" stroke="#22D3EE" stroke-width="1.4" class="pt" style="animation-delay:1.64s"/><circle cx="534.1" cy="328.3" r="2.3" fill="#06070c" stroke="#22D3EE" stroke-width="1.4" class="pt" style="animation-delay:1.68s"/><circle cx="561.8" cy="344.0" r="2.3" fill="#06070c" stroke="#22D3EE" stroke-width="1.4" class="pt" style="animation-delay:1.72s"/><circle cx="589.4" cy="265.3" r="2.3" fill="#06070c" stroke="#22D3EE" stroke-width="1.4" class="pt" style="animation-delay:1.76s"/><circle cx="617.1" cy="249.5" r="2.3" fill="#06070c" stroke="#22D3EE" stroke-width="1.4" class="pt" style="animation-delay:1.80s"/><circle cx="644.8" cy="328.3" r="2.3" fill="#06070c" stroke="#22D3EE" stroke-width="1.4" class="pt" style="animation-delay:1.84s"/><circle cx="672.4" cy="344.0" r="2.3" fill="#06070c" stroke="#22D3EE" stroke-width="1.4" class="pt" style="animation-delay:1.88s"/><circle cx="700.1" cy="328.3" r="2.3" fill="#06070c" stroke="#22D3EE" stroke-width="1.4" class="pt" style="animation-delay:1.92s"/><circle cx="727.7" cy="328.3" r="2.3" fill="#06070c" stroke="#22D3EE" stroke-width="1.4" class="pt" style="animation-delay:1.96s"/><circle cx="755.4" cy="344.0" r="2.3" fill="#06070c" stroke="#22D3EE" stroke-width="1.4" class="pt" style="animation-delay:2.00s"/><circle cx="783.0" cy="344.0" r="2.3" fill="#06070c" stroke="#22D3EE" stroke-width="1.4" class="pt" style="animation-delay:2.04s"/><circle cx="810.7" cy="281.0" r="2.3" fill="#06070c" stroke="#22D3EE" stroke-width="1.4" class="pt" style="animation-delay:2.08s"/><circle cx="838.3" cy="344.0" r="2.3" fill="#06070c" stroke="#22D3EE" stroke-width="1.4" class="pt" style="animation-delay:2.12s"/><circle cx="866.0" cy="344.0" r="2.3" fill="#06070c" stroke="#22D3EE" stroke-width="1.4" class="pt" style="animation-delay:2.16s"/><g class="pt" style="animation-delay:2s"><rect x="427.2" y="121.0" width="48" height="22" rx="6" fill="#10141f" stroke="#D4AF37"/>
    <text x="451.2" y="136.0" text-anchor="middle" font-family="'SFMono-Regular', Consolas, 'Liberation Mono', Menlo, monospace" font-size="12" font-weight="700" fill="#F6DE8D">12</text></g>
<text x="874" y="386" text-anchor="end" font-family="'SFMono-Regular', Consolas, 'Liberation Mono', Menlo, monospace" font-size="10" letter-spacing="1" fill="#8F8A7A">forged 2026-10-06 UTC · daily monotone spline</text>
</svg>
